<svg width="192" height="192" viewBox="0 0 192 192" fill="none" xmlns="http://www.w3.org/2000/svg">
<g clip-path="url(#clip0_22_311)">
<rect y="6" width="48" height="12" rx="2" fill="#BFE4FF"/>
<rect x="54" y="6" width="24" height="12" rx="2" fill="#77D9A8"/>
<rect x="84" y="6" width="36" height="12" rx="2" fill="#FFCABF"/>
<rect x="126" y="6" width="24" height="12" rx="2" fill="#C8C8CB"/>
<rect x="156" y="6" width="24" height="12" rx="2" fill="#77D9A8"/>
<rect x="186" y="6" width="24" height="12" rx="2" fill="#C9ACE6"/>
<rect y="30" width="24" height="12" rx="2" fill="#77D9A8"/>
<rect x="30" y="30" width="24" height="12" rx="2" fill="#C9ACE6"/>
<rect x="60" y="30" width="36" height="12" rx="2" fill="#FF4B00"/>
<rect x="102" y="30" width="36" height="12" rx="2" fill="#77D9A8"/>
<rect x="144" y="30" width="48" height="12" rx="2" fill="#FFF100"/>
<rect y="54" width="36" height="12" rx="2" fill="#77D9A8"/>
<rect x="42" y="54" width="24" height="12" rx="2" fill="#FFCABF"/>
<rect x="72" y="54" width="24" height="12" rx="2" fill="#77D9A8"/>
<rect x="102" y="54" width="36" height="12" rx="2" fill="#C8C8CB"/>
<rect x="144" y="54" width="48" height="12" rx="2" fill="#77D9A8"/>
<rect y="78" width="24" height="12" rx="2" fill="#BFE4FF"/>
<rect x="30" y="78" width="48" height="12" rx="2" fill="#77D9A8"/>
<rect x="84" y="78" width="36" height="12" rx="2" fill="#FFCABF"/>
<rect x="126" y="78" width="24" height="12" rx="2" fill="#77D9A8"/>
<rect x="156" y="78" width="36" height="12" rx="2" fill="#C8C8CB"/>
<rect y="102" width="48" height="12" rx="2" fill="#FF4B00"/>
<rect x="54" y="102" width="24" height="12" rx="2" fill="#77D9A8"/>
<rect x="84" y="102" width="36" height="12" rx="2" fill="#FFCABF"/>
<rect x="126" y="102" width="36" height="12" rx="2" fill="#C9ACE6"/>
<rect x="168" y="102" width="24" height="12" rx="2" fill="#FFF100"/>
<rect y="126" width="36" height="12" rx="2" fill="#77D9A8"/>
<rect x="42" y="126" width="36" height="12" rx="2" fill="#FFCABF"/>
<rect x="84" y="126" width="36" height="12" rx="2" fill="#77D9A8"/>
<rect x="126" y="126" width="24" height="12" rx="2" fill="#FFF100"/>
<rect x="156" y="126" width="36" height="12" rx="2" fill="#C8C8CB"/>
<rect y="150" width="24" height="12" rx="2" fill="#77D9A8"/>
<rect x="30" y="150" width="36" height="12" rx="2" fill="#FF4B00"/>
<rect x="72" y="150" width="36" height="12" rx="2" fill="#FFF100"/>
<rect x="114" y="150" width="24" height="12" rx="2" fill="#C9ACE6"/>
<rect x="144" y="150" width="48" height="12" rx="2" fill="#77D9A8"/>
<rect y="174" width="48" height="12" rx="2" fill="#BFE4FF"/>
<rect x="54" y="174" width="24" height="12" rx="2" fill="#77D9A8"/>
<rect x="84" y="174" width="36" height="12" rx="2" fill="#FFCABF"/>
<rect x="126" y="174" width="24" height="12" rx="2" fill="#C9ACE6"/>
<rect x="156" y="174" width="36" height="12" rx="2" fill="#FFF100"/>
<path d="M51 133C63.1071 133 74.2039 129.737 82.3616 124.303C90.4981 118.884 96 111.066 96 102.025C96 97.56 94.6244 94.0269 91.7218 91.5703C88.9731 89.244 85.2595 88.2419 81.3437 87.7903C78.621 87.4764 75.9201 88.3416 73.5163 89.4252C71.397 90.3805 69.1601 91.6755 66.9862 92.934C66.6728 93.1154 66.3607 93.2961 66.0504 93.4749C60.878 96.4558 55.9556 99.0371 51 99.0371C46.0444 99.0371 41.122 96.4558 35.9496 93.4749C35.6393 93.2961 35.3272 93.1154 35.0138 92.934C32.8399 91.6755 30.603 90.3805 28.4837 89.4252C26.0799 88.3416 23.379 87.4764 20.6563 87.7903C16.7405 88.2419 13.0269 89.244 10.2782 91.5703C7.37555 94.0269 6 97.56 6 102.025C6 111.066 11.5019 118.884 19.6384 124.303C27.7961 129.737 38.8929 133 51 133Z" fill="white" stroke="white" stroke-width="6"/>
<path d="M18 102.009C23.5575 112.599 36.2417 120 51 120C65.7583 120 78.4425 112.599 84 102.009" stroke="#16423D" stroke-width="12" stroke-linecap="round"/>
<path d="M141 133C153.107 133 164.204 129.737 172.362 124.303C180.498 118.884 186 111.066 186 102.025C186 97.56 184.624 94.0269 181.722 91.5703C178.973 89.244 175.259 88.2419 171.344 87.7903C168.621 87.4764 165.92 88.3416 163.516 89.4252C161.397 90.3805 159.16 91.6755 156.986 92.934C156.673 93.1154 156.361 93.2961 156.05 93.4749C150.878 96.4558 145.956 99.0371 141 99.0371C136.044 99.0371 131.122 96.4558 125.95 93.4749C125.639 93.2961 125.327 93.1154 125.014 92.934C122.84 91.6755 120.603 90.3805 118.484 89.4252C116.08 88.3416 113.379 87.4764 110.656 87.7903C106.741 88.2419 103.027 89.244 100.278 91.5703C97.3756 94.0269 96 97.56 96 102.025C96 111.066 101.502 118.884 109.638 124.303C117.796 129.737 128.893 133 141 133Z" fill="white" stroke="white" stroke-width="6"/>
<path d="M108 102.009C113.558 112.599 126.242 120 141 120C155.758 120 168.442 112.599 174 102.009" stroke="#16423D" stroke-width="12" stroke-linecap="round"/>
</g>
<defs>
<clipPath id="clip0_22_311">
<rect width="192" height="192" rx="48" fill="white"/>
</clipPath>
</defs>
</svg>
